<svg width="24" height="24" viewBox="0 0 24 24" fill="none" xmlns="http://www.w3.org/2000/svg">
<path fill-rule="evenodd" clip-rule="evenodd" d="M12 0C5.37258 0 0 5.37258 0 12C0 18.6274 5.37258 24 12 24C18.6274 24 24 18.6274 24 12C24 5.37258 18.6274 0 12 0ZM12.5736 16.643L12.1317 17.107C12.0271 17.2169 11.8575 17.2169 11.7529 17.107L7.07846 12.1989C6.97386 12.089 6.97386 11.911 7.07846 11.8011L11.7529 6.89299C11.8575 6.78316 12.0271 6.78316 12.1317 6.89299L12.5736 7.35701C12.6782 7.46686 12.6782 7.64494 12.5736 7.75477L9.11092 11.3906H16.7321C16.8801 11.3906 17 11.5166 17 11.6719V12.3281C17 12.4834 16.8801 12.6094 16.7321 12.6094H9.11092L12.5736 16.2452C12.6782 16.3551 12.6782 16.5331 12.5736 16.643Z" fill="white"/>
</svg>
