<svg width="32" height="32" viewBox="0 0 32 32" fill="none" xmlns="http://www.w3.org/2000/svg">
<g clip-path="url(#clip0_8739_44961)">
<circle cx="16" cy="16" r="16" fill="white"/>
<path fill-rule="evenodd" clip-rule="evenodd" d="M21.4207 10C21.1228 10 17.7091 10.1596 15.6429 11.3987C13.5767 10.1596 10.1629 10 9.8651 10C8.83666 10 8 10.8443 8 11.8821V19.5954C8 20.5968 8.77551 21.4222 9.76551 21.474C10.644 21.521 12.842 21.7076 14.2493 22.4253C14.4449 22.5249 14.6613 22.5799 14.8784 22.5871V22.5883H16.4074V22.5871C16.6245 22.5799 16.8409 22.5249 17.0365 22.4253C18.4438 21.7076 20.6418 21.521 21.5203 21.474C22.5103 21.4222 23.2858 20.5968 23.2858 19.5954V11.8821C23.2858 10.8443 22.4491 10 21.4207 10ZM22.1394 19.5954C22.1394 19.9681 21.8418 20.2754 21.462 20.2954C20.4027 20.3519 18.2668 20.537 16.7256 21.1406C16.4779 21.2375 16.2161 21.0455 16.2161 20.7728V15.5074L16.2195 12.8992C16.2199 12.585 16.4022 12.3055 16.6799 12.1754C18.3991 11.3722 20.9456 11.1826 21.4214 11.1802C21.8169 11.1802 22.1394 11.4951 22.1394 11.8821V19.5954ZM18.9403 14.8133C18.35 14.994 17.881 15.2058 17.6725 15.3309C17.4596 15.4587 17.1835 15.3896 17.0557 15.1767C16.928 14.9638 16.997 14.6876 17.2099 14.5599C17.501 14.3852 18.0435 14.1475 18.6771 13.9535C19.3136 13.7587 20.0785 13.5967 20.8131 13.5967C21.0614 13.5967 21.2627 13.7979 21.2627 14.0462C21.2627 14.2945 21.0614 14.4958 20.8131 14.4958C20.1989 14.4958 19.5277 14.6335 18.9403 14.8133ZM17.6725 18.478C17.881 18.3529 18.35 18.1411 18.9403 17.9604C19.5277 17.7806 20.1989 17.6429 20.8131 17.6429C21.0614 17.6429 21.2627 17.4416 21.2627 17.1933C21.2627 16.945 21.0614 16.7437 20.8131 16.7437C20.0785 16.7437 19.3136 16.9058 18.6771 17.1006C18.0435 17.2946 17.501 17.5323 17.2099 17.707C16.997 17.8347 16.928 18.1109 17.0557 18.3238C17.1835 18.5367 17.4596 18.6057 17.6725 18.478Z" fill="#CD042D"/>
</g>
<defs>
<clipPath id="clip0_8739_44961">
<rect width="32" height="32" fill="white"/>
</clipPath>
</defs>
</svg>
