<svg width="32" height="32" viewBox="0 0 32 32" fill="none" xmlns="http://www.w3.org/2000/svg">
<g clip-path="url(#clip0_8739_44925)">
<circle cx="16" cy="16" r="16" fill="white"/>
<g clip-path="url(#clip1_8739_44925)">
<path d="M14 14.5C14 13.9478 13.5522 13.5 13 13.5H12.5C11.3953 13.5 10.5 14.3953 10.5 15.5V17C10.5 18.1047 11.3953 19 12.5 19H13C13.5522 19 14 18.5522 14 18V14.5ZM19.5 19C20.6047 19 21.5 18.1047 21.5 17V15.5C21.5 14.3953 20.6047 13.5 19.5 13.5H19C18.4478 13.5 18 13.9478 18 14.5V18C18 18.5522 18.4478 19 19 19H19.5ZM16 8C11.5369 8 8.14312 11.7134 8 16V16.5C8 16.7762 8.22375 17 8.5 17H9C9.27625 17 9.5 16.7762 9.5 16.5V16C9.5 12.4159 12.4159 9.5 16 9.5C19.5841 9.5 22.5 12.4159 22.5 16H22.4963C22.4987 16.0759 22.5 21.1788 22.5 21.1788C22.5 21.9084 21.9084 22.5 21.1788 22.5H18C18 21.6716 17.3284 21 16.5 21H15.5C14.6716 21 14 21.6716 14 22.5C14 23.3284 14.6716 24 15.5 24H21.1788C22.7369 24 24 22.7369 24 21.1788V16C23.8569 11.7134 20.4631 8 16 8Z" fill="#CD042D"/>
</g>
</g>
<defs>
<clipPath id="clip0_8739_44925">
<rect width="32" height="32" fill="white"/>
</clipPath>
<clipPath id="clip1_8739_44925">
<rect width="16" height="16" fill="white" transform="translate(8 8)"/>
</clipPath>
</defs>
</svg>
