<svg width="32" height="32" viewBox="0 0 32 32" fill="none" xmlns="http://www.w3.org/2000/svg">
<g clip-path="url(#clip0_7582_110148)">
<circle cx="16" cy="16" r="16" fill="white"/>
<g clip-path="url(#clip1_7582_110148)">
<path d="M22.4764 10.0607L20.8652 8.43934C20.5856 8.15804 20.2065 8 19.8111 8H14.4658C13.6425 8 12.9752 8.67156 12.9752 9.5V11H10.4907C9.66739 11 9 11.6716 9 12.5V22.5C9 23.3284 9.66739 24 10.4907 24H17.4472C18.2705 24 18.9379 23.3284 18.9379 22.5V21H21.4224C22.2457 21 22.913 20.3284 22.913 19.5V11.1213C22.913 10.7235 22.756 10.342 22.4764 10.0607ZM19.9317 9.01534C20.019 9.03704 20.0989 9.08237 20.1625 9.14644L21.7737 10.7678C21.8374 10.8318 21.8824 10.9121 21.904 11H19.9317V9.01534ZM17.9441 22.5C17.9441 22.7757 17.7212 23 17.4472 23H10.4907C10.2167 23 9.99379 22.7757 9.99379 22.5V12.5C9.99379 12.2243 10.2167 12 10.4907 12H12.9752V19.5C12.9752 20.3284 13.6425 21 14.4658 21H17.9441V22.5ZM21.9193 19.5C21.9193 19.7757 21.6963 20 21.4224 20H14.4658C14.1919 20 13.9689 19.7757 13.9689 19.5V9.5C13.9689 9.22431 14.1919 9 14.4658 9H18.9379V11.25C18.9379 11.6625 19.2733 12 19.6832 12H21.9193V19.5Z" fill="#15181B"/>
</g>
</g>
<defs>
<clipPath id="clip0_7582_110148">
<rect width="32" height="32" fill="white"/>
</clipPath>
<clipPath id="clip1_7582_110148">
<rect width="13.913" height="16" fill="white" transform="translate(9 8)"/>
</clipPath>
</defs>
</svg>
