<svg width="121" height="120" viewBox="0 0 121 120" fill="none" xmlns="http://www.w3.org/2000/svg">
<circle cx="60.5" cy="60" r="60" fill="#F8F8F9"/>
<g clip-path="url(#clip0_9857_53063)">
<path d="M42.1719 99.7823C42.1719 99.7823 44.3695 84.2097 46.1577 77.2505C48.4114 68.4814 59.0671 61.7922 59.0671 61.7922C59.0671 61.7922 54.6334 63.4082 50.4341 63.3286C46.2348 63.2491 46.0562 59.6674 46.7001 57.6395C46.7001 57.6395 41.57 56.4075 43.7466 50.7944C45.9232 45.1814 57.4609 41.7208 65.8314 39.1842C76.4871 35.952 89.8163 44.0705 89.8618 60.3318C89.9003 74.6343 77.2219 86.3172 77.2219 86.3172L72.0603 104.489C72.0603 104.489 56.7224 106.126 42.1719 99.7823Z" fill="#FFB599"/>
<path d="M46.9241 58.2777C47.7438 58.3485 48.5695 58.2504 49.3489 57.9895C50.1283 57.7286 50.8445 57.3106 51.4523 56.762C51.8022 56.4644 51.2949 55.9765 50.959 56.2706C50.4162 56.7558 49.7768 57.1234 49.082 57.3498C48.3871 57.5763 47.6521 57.6566 46.9241 57.5856C46.4762 57.5476 46.4762 58.2397 46.9241 58.2777Z" fill="#15181B"/>
<path d="M79.0905 18.1357C75.8503 17.5806 72.5184 17.9146 69.4567 19.1012L62.6924 28.2475L67.5915 32.158L60.1938 39.4529L60.7817 42.1867L57.7652 38.8161L62.5839 33.1996L58.5001 29.6802L59.9453 25.5759C59.9453 25.5759 51.8968 16.177 40.8177 18.1357C29.7386 20.0944 29.7036 31.3932 33.119 38.6119C39.8834 52.9145 59.9453 62.258 59.9453 62.258C59.9453 62.258 80.0108 52.9145 86.7752 38.6119C90.2046 31.3932 90.1731 20.0979 79.0905 18.1357Z" fill="#FF4500"/>
<path d="M62.7973 67.482C62.7973 67.482 58.7207 57.4948 57.9648 53.3421C57.2089 49.1894 58.8011 45.7842 62.1431 45.3828C65.485 44.9813 74.0759 60.2632 74.0759 60.2632L62.7973 67.482Z" fill="#FFB599"/>
<path d="M71.315 55.8566C72.7148 58.0991 74.188 60.2908 75.7347 62.4317C75.9937 62.7778 76.5992 62.4317 76.3367 62.0857C74.79 59.9447 73.3178 57.753 71.9204 55.5106C71.6825 55.1334 71.0771 55.4794 71.315 55.8566Z" fill="#15181B"/>
<path d="M74.5308 59.6626C75.464 57.9577 76.4612 56.2828 77.5227 54.6379C77.7642 54.2607 77.1728 53.9146 76.9173 54.2918C75.8675 55.9368 74.8713 57.6117 73.9288 59.3166C73.7118 59.7076 74.3173 60.0571 74.5308 59.6626Z" fill="#15181B"/>
<path d="M60.2429 62.3549C61.372 65.5525 62.5035 68.7512 63.6373 71.9511C63.7843 72.3698 64.4597 72.1899 64.3092 71.7677C63.1777 68.5701 62.0462 65.3714 60.9147 62.1715C60.7677 61.7528 60.0924 61.9328 60.2429 62.3549Z" fill="#15181B"/>
<path d="M51.9772 76.5816C52.9232 74.4377 54.4012 72.5648 56.2744 71.1365C58.1476 69.7082 60.3552 68.7708 62.6924 68.4112C63.1368 68.3385 62.9479 67.6741 62.507 67.7433C60.0827 68.125 57.7939 69.1021 55.8503 70.5852C53.9068 72.0682 52.3706 74.0098 51.3824 76.2321C51.204 76.637 51.8058 76.9899 51.9878 76.5781L51.9772 76.5816Z" fill="#15181B"/>
<path d="M60.8027 46.1179C61.4571 49.9937 64.6521 53.7312 68.9739 52.8833C69.4183 52.7968 69.2292 52.1289 68.7883 52.2154C64.848 52.9802 62.0624 49.3916 61.478 45.9345C61.401 45.495 60.7292 45.6818 60.8027 46.1179Z" fill="#15181B"/>
<path d="M36.272 38.2937C33.6824 33.3969 32.6782 27.0468 37.1364 22.8595C37.4618 22.5515 36.9683 22.0636 36.6393 22.3716C31.9501 26.7803 32.93 33.4731 35.67 38.6363C35.8765 39.0308 36.4819 38.6812 36.272 38.2902V38.2937Z" fill="white"/>
</g>
<defs>
<clipPath id="clip0_9857_53063">
<rect width="58.7234" height="86.8085" fill="white" transform="translate(31.1383 17.8711)"/>
</clipPath>
</defs>
</svg>
