<svg width="16" height="16" viewBox="0 0 16 16" fill="none" xmlns="http://www.w3.org/2000/svg">
<g clip-path="url(#clip0_9401_86709)">
<path d="M15.4314 7.31649L8.68349 0.568602C8.30621 0.191325 7.69419 0.191325 7.31661 0.568602L0.568724 7.31649C0.191447 7.69407 0.191447 8.30579 0.568724 8.68337L7.31661 15.4313C7.69389 15.8088 8.30591 15.8088 8.68349 15.4313L15.4314 8.68337C15.8087 8.30579 15.8087 7.69407 15.4314 7.31649ZM12.3885 7.69498L9.85088 10.0373C9.69659 10.1798 9.44618 10.0704 9.44618 9.8601V8.241H6.55332V10.1696C6.55332 10.3028 6.44544 10.4106 6.31225 10.4106H5.34797C5.21477 10.4106 5.10689 10.3028 5.10689 10.1696V7.75886C5.10689 7.22639 5.53871 6.79457 6.07118 6.79457H9.44618V5.17548C9.44618 4.96544 9.69629 4.85576 9.85088 4.99829L12.3885 7.3406C12.4918 7.43612 12.4918 7.59945 12.3885 7.69498Z" fill="#CD042D"/>
</g>
<defs>
<clipPath id="clip0_9401_86709">
<rect width="15.4286" height="15.4286" fill="white" transform="translate(0.285767 0.285645)"/>
</clipPath>
</defs>
</svg>
