<svg width="32" height="32" viewBox="0 0 32 32" fill="none" xmlns="http://www.w3.org/2000/svg">
<g clip-path="url(#clip0_8739_44904)">
<circle cx="16" cy="16" r="16" fill="white"/>
<g clip-path="url(#clip1_8739_44904)">
<path d="M18.8548 13C18.3871 10.2094 17.2839 8.25 16 8.25C14.7161 8.25 13.6129 10.2094 13.1452 13H18.8548ZM12.9032 16C12.9032 16.6938 12.9419 17.3594 13.0097 18H18.9871C19.0548 17.3594 19.0935 16.6938 19.0935 16C19.0935 15.3063 19.0548 14.6406 18.9871 14H13.0097C12.9419 14.6406 12.9032 15.3063 12.9032 16ZM23.3774 13C22.4548 10.8781 20.5871 9.2375 18.2806 8.575C19.0677 9.63125 19.6097 11.2219 19.8935 13H23.3774ZM13.7161 8.575C11.4129 9.2375 9.54194 10.8781 8.62258 13H12.1065C12.3871 11.2219 12.929 9.63125 13.7161 8.575ZM23.7226 14H20.0226C20.0903 14.6562 20.129 15.3281 20.129 16C20.129 16.6719 20.0903 17.3438 20.0226 18H23.7194C23.8968 17.3594 23.9968 16.6938 23.9968 16C23.9968 15.3063 23.8968 14.6406 23.7226 14ZM11.871 16C11.871 15.3281 11.9097 14.6562 11.9774 14H8.27742C8.10323 14.6406 8 15.3063 8 16C8 16.6938 8.10323 17.3594 8.27742 18H11.9742C11.9097 17.3438 11.871 16.6719 11.871 16ZM13.1452 19C13.6129 21.7906 14.7161 23.75 16 23.75C17.2839 23.75 18.3871 21.7906 18.8548 19H13.1452ZM18.2839 23.425C20.5871 22.7625 22.4581 21.1219 23.3806 19H19.8968C19.6129 20.7781 19.071 22.3688 18.2839 23.425ZM8.62258 19C9.54516 21.1219 11.4129 22.7625 13.7194 23.425C12.9323 22.3688 12.3903 20.7781 12.1065 19H8.62258Z" fill="#CD042D"/>
</g>
</g>
<defs>
<clipPath id="clip0_8739_44904">
<rect width="32" height="32" fill="white"/>
</clipPath>
<clipPath id="clip1_8739_44904">
<rect width="16" height="16" fill="white" transform="translate(8 8)"/>
</clipPath>
</defs>
</svg>
