<svg width="48" height="48" viewBox="0 0 48 48" fill="none" xmlns="http://www.w3.org/2000/svg">
<circle cx="24" cy="24" r="24" fill="white"/>
<g clip-path="url(#clip0_8739_44810)">
<path d="M24.0573 12.189C23.6617 12.0127 23.2203 11.9674 22.7972 12.0597C21.9962 12.2341 21.7321 13.0412 21.6661 13.7506C21.6001 14.46 21.0901 22.3433 20.8906 24.8142C20.6911 27.2852 20.4255 31.5026 21.0826 33.3723C21.8822 35.6524 24.4579 36.9044 24.4579 36.9044L27.5917 41.9154C29.364 41.6285 31.0833 41.0768 32.6921 40.2786C34.3763 39.4331 35.8442 38.2113 36.9825 36.7075L34.5253 33.3317C34.5253 33.3317 35.4839 30.9179 35.5334 28.6138C35.5829 26.3097 34.9093 19.1449 34.8583 18.443C34.8073 17.7411 34.5748 17.3638 33.6237 17.2646C32.6726 17.1654 31.3915 18.4355 31.0735 21.1228C31.0735 21.1228 30.0834 13.1569 29.9904 12.5557C29.8899 11.9124 29.3903 11.0632 28.4573 11.0287C27.5242 10.9941 27.0726 11.7967 27.0726 11.7967C27.0726 11.7967 26.9226 10.4365 25.844 10.4816C24.8614 10.5312 24.1459 11.3789 24.0573 12.189Z" fill="#FF581A"/>
<path d="M22.6279 24.0542C24.3065 23.556 26.0404 23.2687 27.7898 23.199C27.9818 23.199 27.9833 22.8984 27.7898 22.8984C26.0132 22.9688 24.2521 23.2596 22.5468 23.7642C22.5278 23.7695 22.51 23.7785 22.4945 23.7907C22.479 23.8029 22.466 23.8181 22.4563 23.8353C22.4368 23.8701 22.4318 23.9113 22.4426 23.9498C22.4533 23.9883 22.4789 24.0209 22.5136 24.0405C22.5484 24.06 22.5895 24.065 22.6279 24.0542Z" fill="#15181B"/>
<path d="M26.9452 11.8062C26.3781 15.5156 26.5282 19.3724 26.6272 23.1073C26.6272 23.1472 26.643 23.1854 26.6711 23.2136C26.6993 23.2418 26.7374 23.2576 26.7772 23.2576C26.817 23.2576 26.8551 23.2418 26.8833 23.2136C26.9114 23.1854 26.9272 23.1472 26.9272 23.1073C26.8282 19.4009 26.6722 15.5667 27.2347 11.8859C27.2632 11.6965 26.9737 11.6153 26.9452 11.8062Z" fill="#15181B"/>
<path d="M23.8805 12.2055C23.5805 13.5958 23.5805 15.0688 23.564 16.4846C23.534 18.8353 23.5925 21.186 23.657 23.5352C23.657 23.5751 23.6728 23.6133 23.7009 23.6415C23.7291 23.6697 23.7672 23.6855 23.807 23.6855C23.8468 23.6855 23.8849 23.6697 23.9131 23.6415C23.9412 23.6133 23.957 23.5751 23.957 23.5352C23.8955 21.2611 23.8385 18.9856 23.861 16.71C23.876 15.2491 23.861 13.7206 24.1685 12.2852C24.2105 12.0973 23.921 12.0162 23.8805 12.2055Z" fill="#15181B"/>
<path d="M24.0304 28.4983C25.0422 29.0854 25.854 29.9643 26.3602 31.0203C26.4442 31.1947 26.7037 31.0429 26.6197 30.87C26.0879 29.7688 25.2388 28.8526 24.182 28.2398C24.1477 28.2218 24.1078 28.2178 24.0706 28.2286C24.0335 28.2394 24.0019 28.2642 23.9825 28.2977C23.9632 28.3313 23.9575 28.3711 23.9667 28.4087C23.9759 28.4464 23.9993 28.479 24.0319 28.4998L24.0304 28.4983Z" fill="#15181B"/>
<path d="M26.5222 33.4562C26.2072 30.1962 27.9143 26.9347 30.7 25.2498C30.7327 25.229 30.7561 25.1964 30.7653 25.1587C30.7745 25.1211 30.7688 25.0813 30.7494 25.0477C30.7301 25.0142 30.6985 24.9894 30.6614 24.9786C30.6242 24.9678 30.5843 24.9718 30.55 24.9898C27.6818 26.7242 25.8996 30.1 26.2237 33.4562C26.2417 33.6471 26.5432 33.6486 26.5237 33.4562H26.5222Z" fill="#15181B"/>
<path d="M30.949 21.2505C30.799 22.528 30.67 23.8056 30.481 25.0801C30.4525 25.2695 30.7405 25.3507 30.769 25.1598C30.964 23.8612 31.0991 22.5551 31.2491 21.252C31.2701 21.0611 30.97 21.0626 30.949 21.252V21.2505Z" fill="#15181B"/>
<path d="M8 36.865L12.2364 31.0604C12.2364 31.0604 12.2364 29.4237 12.6699 25.5489C13.1034 21.6742 13.093 19.7849 13.471 19.0018C13.9375 18.0339 15.2711 18.2172 15.6582 18.9943C15.6582 18.9943 16.0677 13.9577 16.3392 12.6561C16.6618 11.1035 18.5204 11.3876 18.7875 11.9046C18.7863 11.6 18.8576 11.2996 18.9953 11.028C19.133 10.7565 19.3333 10.5217 19.5795 10.343C20.2786 9.85002 21.4712 9.94321 21.8627 10.8781C22.0024 11.243 22.0853 11.6272 22.1087 12.0174C22.3184 11.8639 22.5597 11.7596 22.8149 11.712C23.0701 11.6644 23.3327 11.6747 23.5834 11.7423C24.521 12.0083 24.6125 12.8485 24.704 13.8585C24.7955 14.8686 25.4211 22.4512 25.4211 25.5324C25.4211 28.6135 25.6716 31.6947 24.422 34.6C23.1724 37.5053 20.2036 38.1411 20.2036 38.1411L16.0947 43.7022C16.0947 43.7022 10.9073 40.9382 8 36.865Z" fill="#FFB599"/>
<path d="M18.5894 12.0076C18.3973 15.3482 18.1823 18.6879 17.9443 22.0266C17.9308 22.2205 18.2308 22.219 18.2443 22.0266C18.4833 18.6879 18.6984 15.3482 18.8894 12.0076C18.8999 11.8152 18.5999 11.8152 18.5894 12.0076Z" fill="#15181B"/>
<path d="M21.8868 12.1209C21.7007 15.3683 21.4917 18.6148 21.2597 21.8603C21.2462 22.0542 21.5462 22.0527 21.5597 21.8603C21.7928 18.6158 22.0018 15.3693 22.1868 12.1209C22.1973 11.9285 21.8973 11.9285 21.8868 12.1209Z" fill="#15181B"/>
<path d="M15.4813 18.9687C15.4453 20.3394 15.3868 21.7086 15.3058 23.0764C15.2938 23.2688 15.5938 23.2688 15.6058 23.0764C15.6868 21.7086 15.7453 20.3394 15.7813 18.9687C15.7813 18.9288 15.7655 18.8906 15.7374 18.8624C15.7092 18.8342 15.6711 18.8184 15.6313 18.8184C15.5915 18.8184 15.5534 18.8342 15.5252 18.8624C15.4971 18.8906 15.4813 18.9288 15.4813 18.9687Z" fill="#15181B"/>
<path d="M28.843 4.63402L27.9834 8.06838C27.9728 8.10685 27.978 8.14794 27.9977 8.18261C28.0174 8.21728 28.05 8.24269 28.0884 8.25326C28.1268 8.26382 28.1678 8.25867 28.2024 8.23894C28.237 8.21921 28.2624 8.18651 28.2729 8.14805L29.1325 4.71367C29.143 4.67521 29.1379 4.63412 29.1182 4.59945C29.0985 4.56478 29.0659 4.53937 29.0275 4.52881C28.9891 4.51824 28.9481 4.5234 28.9135 4.54313C28.8789 4.56286 28.8535 4.59555 28.843 4.63402Z" fill="#15181B"/>
<path d="M34.2974 9.0485L31.2266 10.7995C31.1965 10.8214 31.1757 10.8537 31.168 10.8901C31.1604 10.9265 31.1665 10.9644 31.1851 10.9966C31.2038 11.0288 31.2337 11.0529 31.2691 11.0642C31.3044 11.0755 31.3428 11.0733 31.3766 11.058L34.4474 9.30701C34.4774 9.28512 34.4983 9.25286 34.5059 9.21645C34.5136 9.18004 34.5075 9.14208 34.4888 9.10991C34.4702 9.07775 34.4403 9.05366 34.4049 9.04231C34.3695 9.03097 34.3312 9.03317 34.2974 9.0485Z" fill="#15181B"/>
<path d="M22.2514 5.74172C22.6884 6.83691 23.1255 7.9326 23.5625 9.0288C23.633 9.20615 23.9225 9.128 23.8505 8.94914C23.4135 7.85295 22.9765 6.75676 22.5394 5.66056C22.4689 5.48321 22.1794 5.56136 22.2514 5.74172Z" fill="#15181B"/>
</g>
<defs>
<clipPath id="clip0_8739_44810">
<rect width="28.9811" height="39.1698" fill="white" transform="translate(8 4.52734)"/>
</clipPath>
</defs>
</svg>
