<svg width="32" height="32" viewBox="0 0 32 32" fill="none" xmlns="http://www.w3.org/2000/svg">
<ellipse cx="16" cy="16" rx="16" ry="16" fill="#FFF5C2"/>
<g clip-path="url(#clip0_9618_58169)">
<path d="M19.7406 19.6657C18.9744 19.3721 17.2034 18.3974 16.2154 18.265C15.7681 18.2038 15.2614 18.1904 14.9269 18.5019C14.5405 18.8611 14.389 19.5381 14.6764 19.985C14.7899 20.1614 14.9823 20.3076 15.1904 20.4326C15.0416 20.3741 14.8831 20.3463 14.7239 20.3505C14.1639 20.3565 13.7199 20.6318 13.5031 21.3983C13.3944 21.7836 13.522 22.2361 13.8409 22.467C14.0338 22.6065 14.2759 22.6561 14.5999 22.7979C14.2958 22.7732 13.9635 22.8441 13.759 22.9907C13.4053 23.2447 13.2117 23.7524 13.385 24.1594C13.4665 24.3507 13.663 24.507 13.8924 24.6096C13.6209 24.6469 13.3806 24.798 13.2762 25.1691C13.1856 25.4899 13.2132 26.0465 13.7348 26.3814C14.0099 26.5586 16.7123 28.2118 18.0273 28.6609C22.1897 30.4864 24.5642 26.0203 23.2242 23.5308C22.7773 22.7083 20.1375 21.2972 19.7406 19.6657ZM15.7493 20.7411C15.7535 20.7438 15.7566 20.7481 15.758 20.753C15.7593 20.758 15.7589 20.7633 15.7567 20.7679C15.7545 20.7725 15.7507 20.7762 15.746 20.7781C15.7414 20.78 15.7362 20.7801 15.7315 20.7784C15.6456 20.7377 15.5619 20.6616 15.4561 20.5848C15.559 20.6403 15.6594 20.6918 15.7493 20.7411Z" fill="#FFB599"/>
<path d="M25.3743 15.1987L25.1365 15.0815C25.4395 15.5862 25.499 16.3095 25.2362 17.0089C24.9538 17.765 24.3732 18.2895 23.7661 18.4174L24.1285 18.5345C24.8393 18.8095 25.6947 18.2857 26.039 17.3644C26.383 16.4434 26.0854 15.4736 25.3743 15.1987Z" fill="#FF4500"/>
<path d="M17.9779 16.5224L15.0119 23.3525C14.583 24.3403 15.0133 25.499 15.9732 25.9404L16.5569 26.2089C17.5167 26.6504 18.6426 26.2075 19.0716 25.2196L22.0376 18.3895C22.4665 17.4017 22.0361 16.243 21.0763 15.8016L20.4926 15.5331C19.5327 15.0917 18.4069 15.5346 17.9779 16.5224Z" fill="#339090"/>
<path d="M16.8645 17.336L22.106 18.9154C23.2883 19.3727 24.7106 18.5013 25.2833 16.9697C25.8556 15.4381 25.3616 13.8256 24.1793 13.3686L19.1502 10.6643C19.0396 10.6217 16.7551 17.2939 16.8645 17.336Z" fill="#FF4500"/>
<path d="M14.8703 22.6761C14.8703 22.6761 16.1364 23.3397 16.6271 23.3476C17.1179 23.3554 18.5503 23.0327 17.8675 21.6824C17.7935 21.5315 17.6884 21.3989 17.5595 21.2941C17.4306 21.1893 17.281 21.1147 17.1212 21.0755C17.1212 21.0755 18.0733 21.1774 18.0578 20.2549C18.0422 19.3324 15.7543 18.4473 15.7543 18.4473L15.1277 19.861L14.8573 22.0353L14.8703 22.6761Z" fill="#FFB599"/>
<path d="M14.6264 26.5171C14.6264 26.5171 15.5398 27.0766 16.0309 27.0826C16.522 27.0886 17.3383 26.5604 16.8479 25.8046C16.5304 25.3145 15.8754 25.1653 15.8754 25.1653C15.8754 25.1653 17.3492 25.7091 17.4912 24.3491C17.5873 23.4311 15.1878 22.5415 15.1878 22.5415L14.5612 23.9552L14.2904 26.1292L14.6264 26.5171Z" fill="#FFB599"/>
<path d="M16.9911 21.1442H16.9776C16.3081 21.0621 15.6583 20.8569 15.0592 20.5384C15.033 20.5245 15.0133 20.5005 15.0044 20.4716C14.9954 20.4428 14.998 20.4115 15.0115 20.3845C15.025 20.3576 15.0484 20.3373 15.0764 20.3281C15.1044 20.319 15.1349 20.3216 15.161 20.3355C15.7366 20.6415 16.3608 20.8386 17.0041 20.9174C17.0323 20.9207 17.0581 20.935 17.0764 20.9574C17.0946 20.9797 17.1038 21.0084 17.1022 21.0375C17.1005 21.0667 17.0881 21.094 17.0674 21.114C17.0467 21.134 17.0194 21.145 16.9911 21.1449V21.1442Z" fill="#15181B"/>
<path d="M16.9008 23.4827C16.8472 23.4827 16.7921 23.4789 16.733 23.4745C16.0016 23.416 15.2914 23.1942 14.6518 22.8247C14.6261 22.8098 14.6072 22.7851 14.5993 22.7559C14.5913 22.7268 14.5949 22.6955 14.6094 22.6691C14.6238 22.6427 14.6478 22.6233 14.6762 22.6151C14.7045 22.6069 14.7348 22.6106 14.7605 22.6255C15.3718 22.9788 16.0506 23.1909 16.7497 23.2469C16.8026 23.251 16.8544 23.2533 16.9033 23.254C16.9317 23.2557 16.9584 23.2684 16.9779 23.2897C16.9974 23.311 17.0083 23.3391 17.0083 23.3683C17.0083 23.3976 16.9974 23.4257 16.9779 23.447C16.9584 23.4682 16.9317 23.481 16.9033 23.4827H16.9008Z" fill="#15181B"/>
<path d="M16.5648 20.5419H16.5485C16.5194 20.5374 16.4932 20.5212 16.4757 20.4969C16.4582 20.4726 16.4507 20.4421 16.455 20.4121C16.5075 20.0466 16.7913 19.8899 17.0476 19.8977C17.2727 19.9041 17.4825 19.9686 17.6888 20.0309C17.717 20.0395 17.7407 20.0593 17.7548 20.0859C17.7688 20.1125 17.772 20.1438 17.7636 20.1728C17.7553 20.2019 17.736 20.2263 17.7102 20.2407C17.6843 20.2552 17.6539 20.2585 17.6257 20.2499C17.4347 20.1917 17.2375 20.1316 17.0414 20.126C16.8859 20.1215 16.7094 20.2032 16.6746 20.4457C16.6704 20.4726 16.657 20.497 16.6369 20.5146C16.6168 20.5322 16.5912 20.5419 16.5648 20.5419Z" fill="#15181B"/>
<path d="M16.2596 22.6839H16.2556C16.2408 22.6839 16.2262 22.6809 16.2126 22.6749C16.199 22.6689 16.1868 22.6601 16.1766 22.6491C16.1664 22.638 16.1585 22.625 16.1534 22.6107C16.1483 22.5964 16.1461 22.5812 16.1469 22.566C16.161 22.1483 16.389 21.9815 16.5235 21.9196C16.6927 21.8479 16.8784 21.8278 17.0585 21.8618C17.2231 21.8938 17.3844 21.942 17.5402 22.0058C17.5678 22.0161 17.5904 22.0372 17.6029 22.0647C17.6154 22.0921 17.6168 22.1235 17.6069 22.152C17.5969 22.1805 17.5763 22.2037 17.5496 22.2166C17.523 22.2295 17.4924 22.2309 17.4648 22.2206C17.3222 22.1621 17.1747 22.1175 17.024 22.0875C16.8865 22.0605 16.7444 22.0746 16.6144 22.1281C16.459 22.1997 16.3763 22.3497 16.3687 22.5757C16.3671 22.6046 16.355 22.6318 16.3348 22.6519C16.3146 22.672 16.2877 22.6834 16.2596 22.6839Z" fill="#15181B"/>
<path d="M15.941 25.2795C15.9327 25.2796 15.9245 25.2787 15.9164 25.2769C15.2038 25.1102 14.8062 25.005 13.9917 24.7472C13.9778 24.7428 13.9649 24.7356 13.9537 24.726C13.9424 24.7164 13.9332 24.7047 13.9264 24.6914C13.9196 24.6782 13.9154 24.6636 13.914 24.6487C13.9127 24.6338 13.9142 24.6187 13.9185 24.6044C13.9228 24.5901 13.9298 24.5767 13.9391 24.5652C13.9484 24.5537 13.9599 24.5441 13.9728 24.5371C13.9857 24.5301 13.9998 24.5258 14.0143 24.5244C14.0288 24.523 14.0434 24.5246 14.0573 24.529C14.8645 24.7845 15.2592 24.889 15.9657 25.0542C15.991 25.0616 16.0129 25.078 16.0275 25.1005C16.0422 25.1229 16.0486 25.15 16.0456 25.1769C16.0426 25.2038 16.0305 25.2287 16.0114 25.2472C15.9922 25.2658 15.9673 25.2767 15.941 25.278V25.2795Z" fill="#15181B"/>
<path d="M16.0266 24.5893C16.0011 24.5893 15.9765 24.5803 15.9567 24.5639C15.9369 24.5475 15.9232 24.5246 15.9178 24.499C15.8722 24.2801 16.0476 24.0794 16.2404 24.0294C16.4332 23.9794 16.9497 24.1219 17.1745 24.2118C17.2019 24.2227 17.224 24.2444 17.2359 24.2721C17.2478 24.2998 17.2485 24.3313 17.2379 24.3595C17.2273 24.3878 17.2062 24.4105 17.1793 24.4227C17.1523 24.435 17.1218 24.4357 17.0943 24.4248C16.8298 24.3189 16.3963 24.2245 16.2944 24.251C16.206 24.2741 16.1172 24.3662 16.1349 24.4509C16.1411 24.4805 16.1356 24.5114 16.1196 24.5369C16.1036 24.5623 16.0785 24.5802 16.0498 24.5867C16.0421 24.5882 16.0344 24.5891 16.0266 24.5893Z" fill="#15181B"/>
<path d="M15.5536 26.158C15.5348 26.158 15.5164 26.1531 15.5 26.1439C15.4836 26.1346 15.4697 26.1212 15.4597 26.1049C15.4497 26.0887 15.4438 26.07 15.4427 26.0508C15.4415 26.0316 15.4451 26.0124 15.4532 25.995C15.5565 25.7712 15.8094 25.6775 16.0128 25.685C16.2161 25.6924 16.4064 25.7786 16.5721 25.8547C16.5854 25.8608 16.5974 25.8696 16.6074 25.8805C16.6174 25.8914 16.6252 25.9042 16.6304 25.9182C16.6356 25.9322 16.6381 25.9472 16.6377 25.9621C16.6373 25.9771 16.634 25.9919 16.6281 26.0056C16.6221 26.0193 16.6136 26.0316 16.603 26.0419C16.5924 26.0522 16.58 26.0603 16.5663 26.0657C16.5527 26.071 16.5382 26.0735 16.5237 26.0731C16.5091 26.0727 16.4947 26.0693 16.4814 26.0632C16.327 25.9923 16.1675 25.9189 16.0052 25.914C15.8783 25.9092 15.7152 25.9636 15.654 26.0934C15.6448 26.1128 15.6305 26.1292 15.6128 26.1406C15.595 26.152 15.5745 26.158 15.5536 26.158Z" fill="#15181B"/>
<path d="M20.2687 24.3947L21.5058 25.0661C21.2296 24.8337 22.9748 23.219 22.6171 22.8881C21.8298 22.1596 20.9915 20.9134 20.2908 19.8249C20.1147 19.5515 19.716 19.2385 19.3767 19.2393C18.675 19.2393 18.2169 20.1718 18.7606 21.3796C19.152 22.2566 20.0299 24.1493 20.2687 24.3947Z" fill="#FFB599"/>
<path d="M20.7348 20.9408C20.7244 20.9408 20.7141 20.9393 20.704 20.9363C20.3155 20.8207 19.7617 20.2489 19.7939 19.6953C19.7948 19.6804 19.7985 19.6657 19.8048 19.6522C19.8112 19.6387 19.8201 19.6267 19.831 19.6167C19.8419 19.6068 19.8545 19.5991 19.8683 19.5942C19.8821 19.5893 19.8966 19.5872 19.9112 19.5881C19.9257 19.589 19.9399 19.5928 19.9531 19.5993C19.9662 19.6059 19.9779 19.615 19.9876 19.6262C19.9972 19.6374 20.0047 19.6505 20.0094 19.6646C20.0142 19.6788 20.0162 19.6938 20.0154 19.7088C19.9911 20.1347 20.4503 20.6238 20.7657 20.7159C20.7913 20.7235 20.8135 20.7404 20.828 20.7635C20.8425 20.7866 20.8485 20.8143 20.8447 20.8416C20.841 20.8688 20.8278 20.8937 20.8076 20.9118C20.7874 20.9298 20.7616 20.9397 20.7348 20.9397V20.9408Z" fill="#15181B"/>
<path d="M16.4285 4.52091L20.3702 11.5791C20.3746 13.295 19.4278 16.0217 18.1002 17.3869L10.1812 19.4217C10.1346 19.4377 10.0845 19.4394 10.037 19.4267C9.9895 19.4139 9.94659 19.3872 9.91351 19.3499C9.88043 19.3125 9.85859 19.2661 9.85065 19.2162C9.84272 19.1663 9.84902 19.1151 9.8688 19.0689L15.9657 4.52763C15.9851 4.48142 16.017 4.44197 16.0577 4.41403C16.0984 4.38609 16.1461 4.37085 16.195 4.37014C16.2439 4.36943 16.292 4.38329 16.3334 4.41004C16.3748 4.43678 16.4079 4.47529 16.4285 4.52091Z" fill="#FF4500"/>
<path d="M16.0533 13.1906C17.8123 8.99542 17.9038 5.00195 16.2577 4.27097C14.6116 3.53999 11.8512 6.34832 10.0923 10.5435C8.33329 14.7388 8.24178 18.7322 9.88788 19.4632C11.534 20.1942 14.2943 17.3859 16.0533 13.1906Z" fill="#FFB599"/>
<path d="M15.5475 13.2615C17.1619 9.41093 17.3108 5.77433 15.8799 5.13893C14.449 4.50353 11.9803 7.10994 10.3658 10.9605C8.75137 14.8111 8.60253 18.4477 10.0334 19.0831C11.4643 19.7185 13.933 17.1121 15.5475 13.2615Z" fill="#004A4A"/>
<path d="M16.464 10.523C16.289 10.2369 15.9968 9.97356 15.5503 9.73072C14.6046 9.21708 13.1943 10.2265 12.4549 11.87C11.7155 13.5135 11.9605 15.1066 12.8728 15.6829C13.3636 15.9929 13.7695 16.0757 14.1179 15.9974C14.7248 15.0372 15.2424 14.0202 15.6637 12.9599C15.9838 12.1672 16.2511 11.353 16.464 10.523Z" fill="white"/>
<path d="M14.7271 12.5867C15.1312 11.6617 15.1183 10.7543 14.6982 10.5599C14.2781 10.3655 13.6099 10.9578 13.2058 11.8828C12.8017 12.8078 12.8146 13.7152 13.2347 13.9096C13.6548 14.104 14.323 13.5117 14.7271 12.5867Z" fill="#FFB599"/>
<path d="M15.9566 27.3631C15.8022 27.3636 15.6483 27.3462 15.4977 27.3113C15.47 27.3033 15.4464 27.2845 15.4319 27.2589C15.4174 27.2333 15.4131 27.2029 15.42 27.1741C15.4268 27.1453 15.4443 27.1204 15.4687 27.1047C15.4931 27.0889 15.5225 27.0835 15.5506 27.0897C15.5601 27.0919 16.1668 27.2389 16.5655 26.9837C16.7322 26.8767 16.8403 26.7092 16.8874 26.4869C16.8936 26.4572 16.911 26.4313 16.9358 26.4148C16.9605 26.3983 16.9907 26.3927 17.0195 26.399C17.0483 26.4054 17.0735 26.4233 17.0895 26.4488C17.1055 26.4743 17.1111 26.5053 17.1049 26.535C17.0447 26.8207 16.903 27.0371 16.683 27.1781C16.4542 27.3239 16.1824 27.3631 15.9566 27.3631Z" fill="#15181B"/>
<path d="M17.5133 17.4644C17.4909 17.4642 17.469 17.4569 17.4506 17.4436C17.4322 17.4303 17.4181 17.4116 17.4103 17.3899C17.4024 17.3682 17.4011 17.3446 17.4066 17.3221C17.4121 17.2997 17.424 17.2795 17.4409 17.2641C17.4463 17.2593 17.9954 16.7579 18.5706 15.753C19.1009 14.8261 19.7631 13.2688 19.9048 11.1127C19.9058 11.0978 19.9097 11.0832 19.9162 11.0697C19.9227 11.0563 19.9316 11.0443 19.9426 11.0345C19.9536 11.0246 19.9664 11.0171 19.9802 11.0123C19.994 11.0075 20.0086 11.0056 20.0232 11.0066C20.0377 11.0076 20.0519 11.0116 20.065 11.0183C20.078 11.025 20.0897 11.0342 20.0992 11.0455C20.1088 11.0568 20.1161 11.07 20.1208 11.0842C20.1254 11.0984 20.1273 11.1134 20.1263 11.1284C19.9813 13.3344 19.3013 14.9291 18.7562 15.8788C18.1632 16.9116 17.6105 17.4152 17.5873 17.4361C17.567 17.4547 17.5406 17.4648 17.5133 17.4644Z" fill="#15181B"/>
<path d="M24.1278 18.6485C24.1128 18.6486 24.098 18.6456 24.0842 18.6396C24.0704 18.6335 24.058 18.6246 24.0477 18.6134C24.0273 18.5916 24.0162 18.5623 24.0167 18.5321C24.0173 18.5018 24.0295 18.473 24.0506 18.4519C24.0651 18.4377 25.2398 17.2456 25.2634 15.1974C25.264 15.1675 25.276 15.1391 25.2967 15.1182C25.3174 15.0973 25.3453 15.0855 25.3743 15.0854C25.4035 15.0861 25.4313 15.0987 25.4517 15.1203C25.4721 15.1419 25.4833 15.171 25.483 15.2011C25.458 17.3511 24.2532 18.5672 24.2021 18.6179C24.1819 18.6373 24.1554 18.6482 24.1278 18.6485Z" fill="#15181B"/>
<path d="M20.3753 25.6453C20.3475 25.6453 20.3207 25.6345 20.3003 25.6151C19.7743 25.119 19.8095 24.0056 19.8113 23.9586C19.8124 23.9283 19.8252 23.8997 19.8467 23.8791C19.8683 23.8585 19.897 23.8476 19.9264 23.8487C19.9558 23.8499 19.9836 23.863 20.0036 23.8852C20.0236 23.9074 20.0342 23.9369 20.0331 23.9671C20.0331 23.9776 20.0001 25.022 20.4503 25.4469C20.4669 25.4624 20.4784 25.4828 20.4835 25.5052C20.4886 25.5276 20.487 25.5511 20.4789 25.5726C20.4708 25.5941 20.4565 25.6125 20.4381 25.6255C20.4196 25.6385 20.3977 25.6454 20.3753 25.6453Z" fill="#15181B"/>
<path d="M12.0472 5.04047C12.0245 5.04036 12.0024 5.03316 11.9838 5.01984C11.9653 5.00652 11.9511 4.98769 11.9431 4.96587L11.5107 3.78975C11.5003 3.76141 11.5013 3.72998 11.5135 3.70238C11.5256 3.67479 11.5479 3.65328 11.5754 3.64259C11.603 3.63191 11.6335 3.63293 11.6603 3.64541C11.6871 3.6579 11.708 3.68083 11.7184 3.70918L12.1508 4.88492C12.1562 4.89907 12.1588 4.91418 12.1585 4.92938C12.1582 4.94457 12.1549 4.95955 12.1489 4.97344C12.1429 4.98733 12.1343 4.99985 12.1236 5.01027C12.1128 5.02069 12.1001 5.0288 12.0863 5.03413C12.0737 5.03856 12.0605 5.04071 12.0472 5.04047Z" fill="#15181B"/>
<path d="M7.86407 9.79238C7.85841 9.79295 7.8527 9.79295 7.84704 9.79238L6.63934 9.60102C6.61026 9.59642 6.58414 9.58012 6.56674 9.55571C6.54934 9.5313 6.54208 9.50077 6.54655 9.47084C6.55102 9.44091 6.56686 9.41404 6.59058 9.39613C6.6143 9.37822 6.64396 9.37075 6.67304 9.37535L7.88075 9.56671C7.90865 9.57074 7.93401 9.58557 7.95169 9.60816C7.96936 9.63075 7.97802 9.65941 7.9759 9.68833C7.97378 9.71725 7.96103 9.74426 7.94026 9.76386C7.91949 9.78346 7.89225 9.79419 7.86407 9.79387V9.79238Z" fill="#15181B"/>
<path d="M8.84451 6.7798C8.81881 6.77992 8.79389 6.77067 8.77418 6.75369L7.82927 5.95656C7.80649 5.93736 7.79205 5.90964 7.78912 5.87949C7.7862 5.84934 7.79503 5.81923 7.81368 5.79579C7.83233 5.77234 7.85926 5.75748 7.88856 5.75447C7.91786 5.75146 7.94712 5.76055 7.9699 5.77975L8.91482 6.57725C8.92611 6.58675 8.93547 6.59844 8.94237 6.61166C8.94926 6.62489 8.95356 6.63938 8.95501 6.65431C8.95645 6.66924 8.95502 6.68432 8.9508 6.69869C8.94658 6.71305 8.93965 6.72642 8.93041 6.73802C8.91992 6.75102 8.9068 6.7615 8.89196 6.76871C8.87712 6.77593 8.86092 6.77972 8.84451 6.7798Z" fill="#15181B"/>
</g>
<defs>
<clipPath id="clip0_9618_58169">
<rect width="19.6364" height="25.4545" fill="white" transform="translate(6.54546 3.63623)"/>
</clipPath>
</defs>
</svg>
