<svg width="327" height="112" viewBox="0 0 327 112" fill="none" xmlns="http://www.w3.org/2000/svg">
<mask id="path-1-inside-1_10110_36778" fill="white">
<path fill-rule="evenodd" clip-rule="evenodd" d="M327 0H0V16.252C3.45045 17.1401 6 20.2723 6 24C6 27.7277 3.45045 30.8599 0 31.748V48.252C3.45045 49.1401 6 52.2723 6 56C6 59.7277 3.45045 62.8599 0 63.748V80.252C3.45045 81.1401 6 84.2723 6 88C6 91.7277 3.45045 94.8599 0 95.748V112H327V96C322.582 96 319 92.4183 319 88C319 83.5817 322.582 80 327 80V64C322.582 64 319 60.4183 319 56C319 51.5817 322.582 48 327 48V32C322.582 32 319 28.4183 319 24C319 19.5817 322.582 16 327 16V0Z"/>
</mask>
<path fill-rule="evenodd" clip-rule="evenodd" d="M327 0H0V16.252C3.45045 17.1401 6 20.2723 6 24C6 27.7277 3.45045 30.8599 0 31.748V48.252C3.45045 49.1401 6 52.2723 6 56C6 59.7277 3.45045 62.8599 0 63.748V80.252C3.45045 81.1401 6 84.2723 6 88C6 91.7277 3.45045 94.8599 0 95.748V112H327V96C322.582 96 319 92.4183 319 88C319 83.5817 322.582 80 327 80V64C322.582 64 319 60.4183 319 56C319 51.5817 322.582 48 327 48V32C322.582 32 319 28.4183 319 24C319 19.5817 322.582 16 327 16V0Z" fill="white"/>
<path d="M0 0V-1H-1V0H0ZM327 0H328V-1H327V0ZM0 16.252H-1V17.0272L-0.249259 17.2205L0 16.252ZM0 31.748L-0.249259 30.7795L-1 30.9728V31.748H0ZM0 48.252H-1V49.0272L-0.249258 49.2205L0 48.252ZM0 63.748L-0.249258 62.7795L-1 62.9728V63.748H0ZM0 80.252H-1V81.0272L-0.249258 81.2205L0 80.252ZM0 95.748L-0.249258 94.7795L-1 94.9728V95.748H0ZM0 112H-1V113H0V112ZM327 112V113H328V112H327ZM327 96H328V95H327V96ZM327 80V81H328V80H327ZM327 64H328V63H327V64ZM327 48V49H328V48H327ZM327 32H328V31H327V32ZM327 16V17H328V16H327ZM0 1H327V-1H0V1ZM1 16.252V0H-1V16.252H1ZM7 24C7 19.805 4.1308 16.2826 0.249259 15.2836L-0.249259 17.2205C2.7701 17.9976 5 20.7397 5 24H7ZM0.249259 32.7164C4.1308 31.7174 7 28.195 7 24H5C5 27.2603 2.7701 30.0024 -0.249259 30.7795L0.249259 32.7164ZM1 48.252V31.748H-1V48.252H1ZM-0.249258 49.2205C2.7701 49.9976 5 52.7397 5 56H7C7 51.805 4.13081 48.2826 0.249258 47.2836L-0.249258 49.2205ZM5 56C5 59.2603 2.7701 62.0024 -0.249258 62.7795L0.249258 64.7164C4.13081 63.7174 7 60.195 7 56H5ZM1 80.252V63.748H-1V80.252H1ZM-0.249258 81.2205C2.7701 81.9976 5 84.7396 5 88H7C7 83.805 4.1308 80.2826 0.249258 79.2836L-0.249258 81.2205ZM5 88C5 91.2604 2.7701 94.0024 -0.249258 94.7795L0.249258 96.7164C4.1308 95.7174 7 92.195 7 88H5ZM1 112V95.748H-1V112H1ZM327 111H0V113H327V111ZM326 96V112H328V96H326ZM318 88C318 92.9706 322.029 97 327 97V95C323.134 95 320 91.866 320 88H318ZM327 79C322.029 79 318 83.0294 318 88H320C320 84.134 323.134 81 327 81V79ZM326 64V80H328V64H326ZM318 56C318 60.9706 322.029 65 327 65V63C323.134 63 320 59.866 320 56H318ZM327 47C322.029 47 318 51.0294 318 56H320C320 52.134 323.134 49 327 49V47ZM326 32V48H328V32H326ZM318 24C318 28.9706 322.029 33 327 33V31C323.134 31 320 27.866 320 24H318ZM327 15C322.029 15 318 19.0294 318 24H320C320 20.134 323.134 17 327 17V15ZM326 0V16H328V0H326Z" fill="#E1E4E7" mask="url(#path-1-inside-1_10110_36778)"/>
</svg>
