<svg width="32" height="32" viewBox="0 0 32 32" fill="none" xmlns="http://www.w3.org/2000/svg">
<g clip-path="url(#clip0_8739_44990)">
<circle cx="16" cy="16" r="16" fill="white"/>
<g clip-path="url(#clip1_8739_44990)">
<path d="M13.625 22H11C9.34375 22 8 20.6562 8 19V13C8 11.3438 9.34375 10 11 10H13.625C13.8313 10 14 10.1688 14 10.375V11.625C14 11.8312 13.8313 12 13.625 12H11C10.4469 12 10 12.4469 10 13V19C10 19.5531 10.4469 20 11 20H13.625C13.8313 20 14 20.1687 14 20.375V21.625C14 21.8313 13.8313 22 13.625 22ZM17.3094 12.5281L19.7344 14.75H13.75C13.3344 14.75 13 15.0844 13 15.5V16.5C13 16.9156 13.3344 17.25 13.75 17.25H19.7344L17.3094 19.4719C16.9937 19.7594 16.9844 20.2531 17.2844 20.5562L17.9688 21.2406C18.2594 21.5312 18.7344 21.5344 19.0281 21.2437L23.7781 16.5312C24.075 16.2375 24.075 15.7594 23.7781 15.4656L19.0312 10.7594C18.7375 10.4688 18.2656 10.4688 17.9719 10.7625L17.2875 11.4469C16.9844 11.7469 16.9969 12.2406 17.3094 12.5281Z" fill="#CD042D"/>
</g>
</g>
<defs>
<clipPath id="clip0_8739_44990">
<rect width="32" height="32" fill="white"/>
</clipPath>
<clipPath id="clip1_8739_44990">
<rect width="16" height="16" fill="white" transform="translate(8 8)"/>
</clipPath>
</defs>
</svg>
