<svg width="104" height="48" viewBox="0 0 104 48" fill="none" xmlns="http://www.w3.org/2000/svg">
<g clip-path="url(#clip0_8739_44794)">
<path fill-rule="evenodd" clip-rule="evenodd" d="M98.2188 16.9768H98.2235L98.2188 16.9815V16.9768ZM92.9276 16.9768H98.2188V11.1067H103.995V5.76132H98.1717V0H92.8428V5.84167H87.0711V11.154H92.9276V16.9768ZM79.4288 12.0047L78.0059 14.0559C77.9251 13.9932 77.8519 13.9358 77.7839 13.8826L77.7808 13.8802L77.7808 13.8802C77.6045 13.7422 77.4637 13.6319 77.318 13.5266C74.2837 11.31 71.0138 10.9744 67.6497 12.5719C60.799 15.8283 59.7719 26.1741 65.7745 30.9807C69.1999 33.7267 73.9492 33.3769 77.1296 30.3663L77.2332 30.3001L77.907 32.4931H83.5374V12.0142L79.4288 12.0047ZM71.6264 26.1741C69.7464 25.6306 68.6015 23.5794 69.002 21.4904C69.4307 19.2832 71.0421 18.026 73.1765 18.2387C75.2072 18.4372 76.5029 20.0205 76.4935 22.2844C76.4793 25.1012 74.1989 26.9256 71.6264 26.1788V26.1741ZM13.5365 11.9905H6.29004V38.8783C6.29004 40.9106 5.63983 41.5675 3.63738 41.5675H1.33339C1.30466 41.8413 0.960839 43.4307 0.629563 44.962L0.629549 44.9621L0.629534 44.9621L0.629521 44.9622C0.308876 46.4444 0 47.8722 0 48H4.35355C4.98152 48 5.66841 47.9198 5.94868 47.887H5.94871L5.9932 47.8818C9.04635 47.5226 11.421 46.152 12.7544 43.2643C13.3716 41.9362 13.5365 40.5136 13.5365 39.0626V11.9953V11.9905ZM53.6844 11.9905C53.6844 11.9905 50.8621 20.3419 50.3062 21.9866C50.1837 21.6794 47.1305 12.6191 47.1305 12.6191H42.1315C42.1315 12.6191 39.5589 20.3371 39.0029 21.9772C38.871 21.6463 35.766 11.9905 35.766 11.9905H28.2887L36.011 32.4411H41.0195C41.0195 32.4411 43.7994 25.191 44.5815 23.1776C44.7511 23.5794 48.1859 32.4411 48.1859 32.4411H53.2698L60.8979 11.9905H53.6844ZM25.5701 32.4411H18.4225V12.0567H25.5701V32.4411Z" fill="url(#paint0_linear_8739_44794)"/>
</g>
<defs>
<linearGradient id="paint0_linear_8739_44794" x1="0" y1="24.1548" x2="103.995" y2="24.1548" gradientUnits="userSpaceOnUse">
<stop stop-color="#CD042D"/>
<stop offset="1" stop-color="#FF7400"/>
</linearGradient>
<clipPath id="clip0_8739_44794">
<rect width="104" height="48" fill="white"/>
</clipPath>
</defs>
</svg>
