<svg width="32" height="32" viewBox="0 0 32 32" fill="none" xmlns="http://www.w3.org/2000/svg">
<g clip-path="url(#clip0_8739_44847)">
<path d="M15.9999 31.9881C24.83 31.9881 31.9881 24.83 31.9881 15.9999C31.9881 7.16988 24.83 0.0117188 15.9999 0.0117188C7.16988 0.0117188 0.0117188 7.16988 0.0117188 15.9999C0.0117188 24.83 7.16988 31.9881 15.9999 31.9881Z" fill="#CD042D"/>
<path d="M25.0407 15.2789C24.7612 14.6507 24.042 14.3054 23.1191 14.3509C22.4622 14.3846 21.3675 14.7568 20.613 15.0431C21.1744 13.2141 21.7251 11.3833 22.2652 9.5509C22.5447 8.60101 22.1557 7.76732 21.2967 7.40859C20.197 6.95216 19.2437 7.36985 18.8412 8.49827C18.5397 9.34038 18.2567 10.1825 17.9738 11.0044C17.9738 9.60143 17.9873 8.20522 17.9738 6.81069C17.962 5.84395 17.2445 5.17195 16.261 5.15848C15.1949 5.14332 14.4757 5.75132 14.4083 6.73322C14.3595 7.50122 14.3292 8.26922 14.2871 9.03553C14.2652 9.44143 14.2349 9.84395 14.2096 10.2482C13.9576 9.36973 13.7518 8.47868 13.5932 7.57869C13.3877 6.56816 12.5826 6.04101 11.589 6.2448C10.5953 6.44859 10.0176 7.25532 10.1927 8.23216C10.314 8.90585 10.4555 9.57953 10.5801 10.2633C10.7485 11.2115 10.9287 12.1597 11.1022 13.108C10.594 12.4708 10.1362 11.7951 9.73296 11.0869C9.2277 10.2212 8.49001 9.96353 7.65633 10.3762C6.87991 10.7602 6.6458 11.5164 7.02475 12.4376C7.55022 13.7109 8.10433 14.9741 8.60454 16.2574C8.83445 16.8237 8.9945 17.4158 9.08117 18.0208C9.29926 19.7318 9.67187 21.4195 10.1944 23.0633L10.2045 23.0953C10.5656 23.7825 11.0953 24.3666 11.7439 24.793C12.5389 25.3336 13.6875 25.7901 15.301 25.7901C16.6685 25.7901 17.6589 25.465 18.3544 25.0406C18.9644 24.6782 19.4654 24.1581 19.8045 23.5349C19.8551 23.4221 19.9073 23.3109 19.9578 23.1981C19.9797 23.1543 19.9999 23.1088 20.0201 23.0633H20.005L20.9717 20.3113V20.281C21.2715 20.0065 24.133 17.396 24.7039 16.8233C24.9134 16.6327 25.0584 16.3816 25.1188 16.1049C25.1792 15.8281 25.1519 15.5394 25.0407 15.2789ZM23.8618 15.9762C23.3464 16.4932 20.7612 18.8545 20.2407 19.3311H20.1683L19.1426 22.7821C19.1241 22.8259 19.1039 22.868 19.0854 22.9117C18.8749 23.2957 17.8626 24.7947 14.8749 24.7947C12.0016 24.7947 11.1022 22.9336 10.8866 22.3341C10.858 22.2549 10.8429 22.1993 10.8344 22.1656V22.1454C10.5137 21.1737 10.2947 20.1712 10.181 19.1543C10.0125 17.4701 9.4938 15.892 8.7797 14.3661C8.41254 13.5829 8.10601 12.7677 7.76917 11.9728C7.60075 11.5922 7.60075 11.2789 8.02685 11.0802C8.17206 11.015 8.33628 11.0059 8.48777 11.0548C8.63927 11.1036 8.76728 11.2069 8.84707 11.3446C9.69478 12.7795 10.5633 14.1965 11.4525 15.5955C11.5041 15.6686 11.5714 15.729 11.6496 15.7724C11.7076 15.8076 11.773 15.829 11.8407 15.8347C11.9083 15.8405 11.9764 15.8305 12.0395 15.8055C12.1027 15.7806 12.1592 15.7413 12.2046 15.6909C12.25 15.6404 12.2832 15.5801 12.3014 15.5147C12.3289 15.4283 12.337 15.3368 12.325 15.2469C11.9258 12.8991 11.4829 10.5564 11.0685 8.21195C10.9473 7.53827 11.1612 7.18964 11.7422 7.07343C12.293 6.96227 12.6214 7.24185 12.7527 7.94248C13.1485 10.0932 13.5325 12.244 13.9553 14.388C13.9619 14.419 13.9727 14.449 13.9873 14.4772C14.0283 14.5486 14.0885 14.6072 14.161 14.6463C14.2335 14.6854 14.3154 14.7036 14.3977 14.6987C14.4799 14.6938 14.5591 14.666 14.6265 14.6186C14.6938 14.5711 14.7466 14.5059 14.7789 14.4301C14.789 14.41 14.7974 14.3892 14.8041 14.3677C14.8513 14.1762 14.8695 13.9786 14.858 13.7816C14.9804 11.5181 15.1017 9.25448 15.2218 6.9909C15.2589 6.31722 15.5435 6.02922 16.1565 6.04101C16.7696 6.0528 17.0391 6.35764 17.0256 7.04143C17.0071 8.12606 16.9734 9.20901 16.9447 10.2936C16.9127 11.5349 16.8656 12.7762 16.8639 14.0191C16.8639 14.2212 17.0087 14.5345 17.1704 14.6069C17.5174 14.7585 17.706 14.4856 17.7936 14.1623C17.8071 14.1117 17.8205 14.0612 17.8374 14.0124C18.4285 12.2978 19.0163 10.58 19.6142 8.86711C19.8332 8.24059 20.2155 8.04859 20.7932 8.23722C21.3355 8.41406 21.5376 8.79469 21.3574 9.41616C20.9111 10.932 20.4445 12.4292 19.9864 13.9366C19.8534 14.3762 19.7186 14.8157 19.5906 15.2351C17.4921 14.9269 16.1414 15.7522 15.3582 16.5404C14.7969 17.1077 14.3678 17.7921 14.1018 18.5446L15.2353 18.9016C15.2774 18.7686 16.3132 15.673 19.8938 16.5L20.0824 16.5437L20.2509 16.468C21.0525 16.1311 22.5515 15.5787 23.1612 15.5467C23.6462 15.5214 23.8904 15.6663 23.9359 15.7707C23.9814 15.8751 23.9005 15.9475 23.8702 15.9762H23.8618Z" fill="white"/>
</g>
<defs>
<clipPath id="clip0_8739_44847">
<rect width="32" height="32" fill="white"/>
</clipPath>
</defs>
</svg>
