<svg width="32" height="32" viewBox="0 0 32 32" fill="none" xmlns="http://www.w3.org/2000/svg">
<g clip-path="url(#clip0_8739_44915)">
<circle cx="16" cy="16" r="16" fill="white"/>
<g clip-path="url(#clip1_8739_44915)">
<path d="M18.3813 21.325C15.4719 21.8781 12.8031 19.6469 12.8031 16.7094C12.8031 15.0156 13.7094 13.4594 15.1813 12.6219C15.4094 12.4937 15.35 12.15 15.0938 12.1C11.3969 11.4187 8 14.25 8 18C8 21.3125 10.6813 24 13.9938 24C15.8438 24 17.5312 23.1594 18.65 21.7781C18.8156 21.575 18.6344 21.275 18.3813 21.325ZM17.5 11L18 10L19 9.5L18 9L17.5 8L17 9L16 9.5L17 10L17.5 11ZM22.3344 13.6656L21.5 12L20.6656 13.6656L19 14.5L20.6656 15.3344L21.5 17L22.3344 15.3344L24 14.5L22.3344 13.6656Z" fill="#CD042D"/>
</g>
</g>
<defs>
<clipPath id="clip0_8739_44915">
<rect width="32" height="32" fill="white"/>
</clipPath>
<clipPath id="clip1_8739_44915">
<rect width="16" height="16" fill="white" transform="translate(8 8)"/>
</clipPath>
</defs>
</svg>
