<svg width="32" height="32" viewBox="0 0 32 32" fill="none" xmlns="http://www.w3.org/2000/svg">
<g clip-path="url(#clip0_8739_44936)">
<circle cx="16" cy="16" r="16" fill="white"/>
<g clip-path="url(#clip1_8739_44936)">
<path d="M16.5 25C17.6826 25 18.6419 24.0487 18.6419 22.875H14.3582C14.3582 24.0487 15.3174 25 16.5 25ZM23.7117 20.0292C23.0649 19.3399 21.8545 18.3029 21.8545 14.9062C21.8545 12.3264 20.0304 10.2611 17.5708 9.75445V9.0625C17.5708 8.4758 17.0913 8 16.5 8C15.9087 8 15.4293 8.4758 15.4293 9.0625V9.75445C12.9697 10.2611 11.1456 12.3264 11.1456 14.9062C11.1456 18.3029 9.93518 19.3399 9.2883 20.0292C9.08741 20.2433 8.99835 20.4993 9.00002 20.75C9.00371 21.2945 9.43462 21.8125 10.0748 21.8125H22.9253C23.5654 21.8125 23.9967 21.2945 24 20.75C24.0017 20.4993 23.9126 20.243 23.7117 20.0292Z" fill="#CD042D"/>
</g>
</g>
<defs>
<clipPath id="clip0_8739_44936">
<rect width="32" height="32" fill="white"/>
</clipPath>
<clipPath id="clip1_8739_44936">
<rect width="15" height="17" fill="white" transform="translate(9 8)"/>
</clipPath>
</defs>
</svg>
