<svg width="32" height="32" viewBox="0 0 32 32" fill="none" xmlns="http://www.w3.org/2000/svg">
<g clip-path="url(#clip0_8739_44950)">
<circle cx="16" cy="16" r="16" fill="white"/>
<g clip-path="url(#clip1_8739_44950)">
<path d="M16.313 8C13.8187 8 12.2031 9.02197 10.9347 10.8446C10.7046 11.1752 10.7755 11.6285 11.0965 11.8719L12.4446 12.894C12.7687 13.1398 13.23 13.0823 13.4837 12.7644C14.2665 11.7838 14.8472 11.2191 16.0699 11.2191C17.0313 11.2191 18.2204 11.8378 18.2204 12.7701C18.2204 13.4748 17.6386 13.8368 16.6894 14.369C15.5824 14.9896 14.1175 15.762 14.1175 17.6941V18C14.1175 18.4142 14.4533 18.75 14.8675 18.75H17.1322C17.5465 18.75 17.8822 18.4142 17.8822 18V17.8196C17.8822 16.4802 21.7969 16.4244 21.7969 12.8C21.7969 10.0705 18.9656 8 16.313 8ZM15.9999 19.6706C14.8063 19.6706 13.8352 20.6417 13.8352 21.8353C13.8352 23.0289 14.8063 24 15.9999 24C17.1935 24 18.1646 23.0289 18.1646 21.8353C18.1646 20.6417 17.1935 19.6706 15.9999 19.6706Z" fill="#CD042D"/>
</g>
</g>
<defs>
<clipPath id="clip0_8739_44950">
<rect width="32" height="32" fill="white"/>
</clipPath>
<clipPath id="clip1_8739_44950">
<rect width="12" height="16" fill="white" transform="translate(10 8)"/>
</clipPath>
</defs>
</svg>
