<svg width="32" height="32" viewBox="0 0 32 32" fill="none" xmlns="http://www.w3.org/2000/svg">
<g clip-path="url(#clip0_8739_44975)">
<circle cx="16" cy="16" r="16" fill="white"/>
<g clip-path="url(#clip1_8739_44975)">
<path fill-rule="evenodd" clip-rule="evenodd" d="M15.4219 8.11485L9.42188 10.6148C8.86563 10.8461 8.5 11.393 8.5 11.9992C8.5 18.9148 12.7469 22.768 15.425 23.8836C15.7938 24.0367 16.2094 24.0367 16.5781 23.8836C19.9219 22.4898 23.5 18.2023 23.5 11.9992C23.5 11.393 23.1344 10.8461 22.575 10.6148L16.575 8.11485C16.3922 8.03903 16.1963 8 15.9984 8C15.8006 8 15.6046 8.03903 15.4219 8.11485ZM14.5 14.375C14.5 14.943 14.8157 15.4373 15.2812 15.6919V18.3906C15.2812 18.7789 15.596 19.0938 15.9844 19.0938C16.3727 19.0938 16.6875 18.7789 16.6875 18.3906V15.7085C17.1701 15.4592 17.5 14.9556 17.5 14.375C17.5 13.5466 16.8284 12.875 16 12.875C15.1716 12.875 14.5 13.5466 14.5 14.375Z" fill="#CD042D"/>
</g>
</g>
<defs>
<clipPath id="clip0_8739_44975">
<rect width="32" height="32" fill="white"/>
</clipPath>
<clipPath id="clip1_8739_44975">
<rect width="16" height="16" fill="white" transform="matrix(-1 0 0 1 24 8)"/>
</clipPath>
</defs>
</svg>
