<svg width="32" height="32" viewBox="0 0 32 32" fill="none" xmlns="http://www.w3.org/2000/svg">
<circle cx="16" cy="16" r="16" fill="white"/>
<g clip-path="url(#clip0_8739_44831)">
<path d="M19.9183 12.7849V11.7134C19.9183 9.35028 18.1605 7.42773 16 7.42773C13.8394 7.42773 12.0816 9.35028 12.0816 11.7134V12.7849H9.14282V21.892C9.14282 23.3714 10.2393 24.5706 11.5918 24.5706H20.4081C21.7607 24.5706 22.8571 23.3714 22.8571 21.892V12.7849H19.9183ZM14.0408 11.7134C14.0408 10.5319 14.9197 9.57059 16 9.57059C17.0803 9.57059 17.9591 10.5319 17.9591 11.7134V12.7849H14.0408V11.7134ZM18.9387 15.7313C18.533 15.7313 18.204 15.3715 18.204 14.9277C18.204 14.4839 18.533 14.1242 18.9387 14.1242C19.3445 14.1242 19.6734 14.4839 19.6734 14.9277C19.6734 15.3715 19.3445 15.7313 18.9387 15.7313ZM13.0612 15.7313C12.6554 15.7313 12.3265 15.3715 12.3265 14.9277C12.3265 14.4839 12.6554 14.1242 13.0612 14.1242C13.467 14.1242 13.7959 14.4839 13.7959 14.9277C13.7959 15.3715 13.467 15.7313 13.0612 15.7313Z" fill="#CD042D"/>
</g>
<defs>
<clipPath id="clip0_8739_44831">
<rect width="13.7143" height="17.1429" fill="white" transform="translate(9.14282 7.42773)"/>
</clipPath>
</defs>
</svg>
