<svg width="32" height="32" viewBox="0 0 32 32" fill="none" xmlns="http://www.w3.org/2000/svg">
<g clip-path="url(#clip0_8739_45001)">
<circle cx="16" cy="16" r="16" fill="white"/>
<g clip-path="url(#clip1_8739_45001)">
<path d="M14.6434 8.55665L12.4667 12.6941L7.5967 13.3598C6.72337 13.4785 6.37337 14.4879 7.0067 15.066L10.53 18.2848L9.6967 22.8317C9.5467 23.6535 10.47 24.2692 11.2434 23.8848L15.6 21.7379L19.9567 23.8848C20.73 24.266 21.6534 23.6535 21.5034 22.8317L20.67 18.2848L24.1934 15.066C24.8267 14.4879 24.4767 13.4785 23.6034 13.3598L18.7334 12.6941L16.5567 8.55665C16.1667 7.81915 15.0367 7.80977 14.6434 8.55665Z" fill="#CD042D"/>
</g>
</g>
<defs>
<clipPath id="clip0_8739_45001">
<rect width="32" height="32" fill="white"/>
</clipPath>
<clipPath id="clip1_8739_45001">
<rect width="19.2" height="16" fill="white" transform="translate(6 8)"/>
</clipPath>
</defs>
</svg>
