<svg width="56" height="56" viewBox="0 0 56 56" fill="none" xmlns="http://www.w3.org/2000/svg">
<circle cx="28" cy="28" r="28" fill="white"/>
<g clip-path="url(#clip0_8905_57613)">
<path d="M33.8947 31.6846C32.0249 31.6846 31.7026 31.6155 30.5697 31.9978C29.7637 32.2695 28.898 32.4215 27.9999 32.4215C27.1019 32.4215 26.2361 32.2695 25.4302 31.9978C24.2973 31.6155 23.9795 31.6846 22.1052 31.6846C18.8493 31.6846 16.2104 34.3234 16.2104 37.5794V38.3162C16.2104 39.1313 16.869 39.7899 17.6841 39.7899H38.3157C39.1308 39.7899 39.7894 39.1313 39.7894 38.3162V37.5794C39.7894 34.3234 37.1506 31.6846 33.8947 31.6846ZM37.5789 37.5794H18.421C18.421 36.5938 18.8032 35.6682 19.4986 34.9728C20.194 34.2774 21.1197 33.8951 22.1052 33.8951C23.998 33.8951 23.9933 33.8445 24.721 34.0886C25.7802 34.4478 26.8855 34.632 27.9999 34.632C29.1144 34.632 30.2197 34.4478 31.2789 34.0886C32.0065 33.8399 32.0019 33.8951 33.8947 33.8951C35.9256 33.8951 37.5789 35.5484 37.5789 37.5794ZM27.9999 30.9478C32.071 30.9478 35.3683 27.6504 35.3683 23.5794C35.3683 19.5083 32.071 16.2109 27.9999 16.2109C23.9289 16.2109 20.6315 19.5083 20.6315 23.5794C20.6315 27.6504 23.9289 30.9478 27.9999 30.9478ZM27.9999 18.4215C30.846 18.4215 33.1578 20.7333 33.1578 23.5794C33.1578 26.4254 30.846 28.7373 27.9999 28.7373C25.1539 28.7373 22.842 26.4254 22.842 23.5794C22.842 20.7333 25.1539 18.4215 27.9999 18.4215Z" fill="#15181B"/>
</g>
<defs>
<clipPath id="clip0_8905_57613">
<rect width="23.579" height="23.5789" fill="white" transform="translate(16.2104 16.2109)"/>
</clipPath>
</defs>
</svg>
