<svg width="32" height="32" viewBox="0 0 32 32" fill="none" xmlns="http://www.w3.org/2000/svg">
<path fill-rule="evenodd" clip-rule="evenodd" d="M24.5087 9.62408L25.3748 12.6688C24.472 12.8967 23.934 13.763 24.1731 14.6038C24.4123 15.4446 25.338 15.9415 26.2408 15.7136L27.1069 18.7584C27.346 19.5992 26.808 20.4655 25.9052 20.6934L9.5588 24.8195C8.656 25.0473 7.73028 24.5505 7.49113 23.7097L6.62508 20.6649C7.52788 20.437 8.06585 19.5707 7.8267 18.7299C7.58754 17.8891 6.66183 17.3923 5.75903 17.6202L4.89298 14.5754C4.65383 13.7346 5.1918 12.8683 6.0946 12.6404L22.441 8.5143C23.3438 8.28642 24.2696 8.78328 24.5087 9.62408ZM16.1153 19.493C17.7084 19.493 18.9999 18.2764 18.9999 16.7756C18.9999 15.2748 17.7084 14.0582 16.1153 14.0582C14.5221 14.0582 13.2307 15.2748 13.2307 16.7756C13.2307 18.2764 14.5221 19.493 16.1153 19.493Z" fill="#CD042D"/>
</svg>
