<svg width="32" height="32" viewBox="0 0 32 32" fill="none" xmlns="http://www.w3.org/2000/svg">
<g clip-path="url(#clip0_8739_44868)">
<circle cx="16" cy="16" r="16" fill="white"/>
<path d="M22.4125 12H10.5C10.2238 12 10 11.7762 10 11.5C10 11.2238 10.2238 11 10.5 11H22.5C22.7762 11 23 10.7763 23 10.5C23 9.67156 22.3284 9 21.5 9H10C8.89531 9 8 9.89531 8 11V21C8 22.1047 8.89531 23 10 23H22.4125C23.2881 23 24 22.3272 24 21.5V13.5C24 12.6728 23.2881 12 22.4125 12ZM21 18.5C20.4478 18.5 20 18.0522 20 17.5C20 16.9478 20.4478 16.5 21 16.5C21.5522 16.5 22 16.9478 22 17.5C22 18.0522 21.5522 18.5 21 18.5Z" fill="#CD042D"/>
</g>
<defs>
<clipPath id="clip0_8739_44868">
<rect width="32" height="32" fill="white"/>
</clipPath>
</defs>
</svg>
